<svg xmlns="http://www.w3.org/2000/svg" viewBox="0 0 409.4063 113.0527">
  <title>urbanconsultancy-logo-reverse-rgb</title>
  <g id="white-rgb">
    <g>
      <path id="fullLogo" d="M271.0338,67.7641h.21l.0945-.3Z" style="fill: #fff"/>
      <path id="fullLogo-2" data-name="fullLogo" d="M301.2831.0129H278.2956L252.4069,73.6641h19.0919l.3041-.3,3.1888-3.1477h28.7447l3.4107,3.4066.0986-.1644.0617.2055h19.7493ZM277.8148,54.0092,286.44,26.2385l3.0121-11.4937h.2219L292.9124,26.35l8.4159,27.66Z" style="fill: #fff"/>
      <path id="fullLogo-3" data-name="fullLogo" d="M65.8394.0129V43.6456q0,15.6195-8.3131,23.3779-8.3152,7.7542-24.6066,7.75-16.18,0-24.549-7.75Q0,59.2691,0,43.6456V.0129H19.3055l.0083.0041L46.6407,27.3439,46.6489.0129Z" style="fill: #fff"/>
      <path id="fullLogo-4" data-name="fullLogo" d="M140.6706,53.4242l-4.6-7.14c6.18-1.81,9.93-7.06,11.76-12.11a29.7463,29.7463,0,0,0,1.11-13.93,27.5276,27.5276,0,0,0-1.61-6.58,18.6872,18.6872,0,0,0-5.22-7.45q-7.32-6.225-20.49-6.21H86.5v73.68h18.85v-19.96l-.04-7.44h11.25l.29.5,1.52,2.37,4.02,6.94-.65-.98,10.84,18.57h21.19Zm-10.07-23.5a6.8856,6.8856,0,0,1-1.82,3.36,6.8125,6.8125,0,0,1-.72.55h-.04l-12.4-19.33h3.33a14.46,14.46,0,0,1,8.12,2.12C131.29,19.4642,131.9206,25.3842,130.6,29.9242Z" style="fill: #fff"/>
      <path id="fullLogo-5" data-name="fullLogo" d="M237.0668,53.79c0,6.33-2.22,11.22-6.7,14.66-4.43,3.5-11.13,5.22-20.08,5.22h-37.49V0h35.81c9.07.08,15.77,1.8,20.12,5.21,4.32,3.37,6.45,8.26,6.45,14.66a16.3549,16.3549,0,0,1-3.7,10.76c-2.42,3.04-6.2,4.93-11.25,5.75v.12c5.67.74,9.9,2.72,12.65,5.88A16.61,16.61,0,0,1,237.0668,53.79Z" style="fill: #fff"/>
      <polygon id="fullLogo-6" data-name="fullLogo" points="408.975 0.013 408.975 73.664 342.581 73.664 342.581 0.013 365.006 0.009 392.341 27.344 392.341 0.013 408.975 0.013" style="fill: #fff"/>
      <path id="fullLogo-7" data-name="fullLogo" d="M25.9171,105.4077a11.8624,11.8624,0,0,1-2.5625,4.1211,11.0723,11.0723,0,0,1-3.9082,2.627,13.0526,13.0526,0,0,1-4.89.8969,13.1373,13.1373,0,0,1-6.94-1.7724,11.8266,11.8266,0,0,1-4.5273-5.0186,19.4571,19.4571,0,0,1,0-15.4609,11.8353,11.8353,0,0,1,4.5273-5.0186A12.9715,12.9715,0,0,1,14.4708,84.01a14.7184,14.7184,0,0,1,4.8691.747,9.8092,9.8092,0,0,1,3.6514,2.2212,10.7767,10.7767,0,0,1,2.4131,3.6089l-3.374,1.58a7.8375,7.8375,0,0,0-2.7119-3.6944,7.7509,7.7509,0,0,0-4.5909-1.26,9.3918,9.3918,0,0,0-5.04,1.3452,9.0237,9.0237,0,0,0-3.3955,3.8652,13.9463,13.9463,0,0,0-1.2168,6.1075,14.6294,14.6294,0,0,0,1.1533,6.0859,8.6919,8.6919,0,0,0,3.2881,3.8867,9.2553,9.2553,0,0,0,5.04,1.3452,8.4847,8.4847,0,0,0,4.9112-1.4306,8.0173,8.0173,0,0,0,3.0322-4.292Z" style="fill: #fff"/>
      <path id="fullLogo-8" data-name="fullLogo" d="M54.46,84.01a13.1467,13.1467,0,0,1,6.94,1.7719,11.8545,11.8545,0,0,1,4.5273,5.0186,19.4571,19.4571,0,0,1,0,15.4609,11.8458,11.8458,0,0,1-4.5273,5.0186,13.1423,13.1423,0,0,1-6.94,1.7724,13.1374,13.1374,0,0,1-6.94-1.7724,11.8279,11.8279,0,0,1-4.5273-5.0186,19.4571,19.4571,0,0,1,0-15.4609A11.8366,11.8366,0,0,1,47.52,85.7822,13.1419,13.1419,0,0,1,54.46,84.01Zm0,3.2031a9.2554,9.2554,0,0,0-5.04,1.3452,8.6972,8.6972,0,0,0-3.2881,3.8867,16.6344,16.6344,0,0,0,0,12.1719,8.6919,8.6919,0,0,0,3.2881,3.8867,10.1528,10.1528,0,0,0,10.1006,0,8.7374,8.7374,0,0,0,3.2676-3.8867,16.6344,16.6344,0,0,0,0-12.1719,8.7428,8.7428,0,0,0-3.2676-3.8867A9.2248,9.2248,0,0,0,54.46,87.2134Z" style="fill: #fff"/>
      <path id="fullLogo-9" data-name="fullLogo" d="M107.7745,84.437v28.1885H103.546L91.7579,93.748l-2.9893-5.2963h-.0429l.1709,4.271v19.9028H85.6505V84.437H89.879L101.6241,103.23l3.0322,5.4238h.043l-.1709-4.3135V84.437Z" style="fill: #fff"/>
      <path id="fullLogo-10" data-name="fullLogo" d="M136.6583,84.01a12.8444,12.8444,0,0,1,6.4062,1.5161,12.3439,12.3439,0,0,1,4.4844,4.4629L144.6876,92.21a10.0956,10.0956,0,0,0-3.5664-3.8652,9.5562,9.5562,0,0,0-4.8047-1.1318,9.4178,9.4178,0,0,0-3.7373.6406,4.73,4.73,0,0,0-2.1563,1.687,4.2374,4.2374,0,0,0-.6836,2.37,3.9916,3.9916,0,0,0,.94,2.627,6.876,6.876,0,0,0,3.7588,1.7724l6.1074,1.3667q4.0577.8966,5.6592,2.712a6.5656,6.5656,0,0,1,1.6016,4.5058,7.0561,7.0561,0,0,1-1.3457,4.2495,8.6881,8.6881,0,0,1-3.7793,2.8828,14.6743,14.6743,0,0,1-5.7237,1.0254,16.0129,16.0129,0,0,1-5.4023-.833,12.76,12.76,0,0,1-3.9932-2.2422,12.9709,12.9709,0,0,1-2.7334-3.1606l2.9893-2.4346a10.43,10.43,0,0,0,2.0927,2.8618,8.8885,8.8885,0,0,0,3.0967,1.9219,11.7674,11.7674,0,0,0,4.1641.6831,11.9637,11.9637,0,0,0,3.7793-.5337,5.1828,5.1828,0,0,0,2.456-1.58,3.8889,3.8889,0,0,0,.8545-2.5416,3.759,3.759,0,0,0-.8974-2.4555,6.015,6.015,0,0,0-3.3741-1.6445L133.37,99.5991a13.0056,13.0056,0,0,1-4.207-1.6445,6.33,6.33,0,0,1-2.3067-2.4771,6.9122,6.9122,0,0,1-.705-3.0962,7.3785,7.3785,0,0,1,1.2607-4.1645,8.89,8.89,0,0,1,3.63-3.0537A12.716,12.716,0,0,1,136.6583,84.01Z" style="fill: #fff"/>
      <path id="fullLogo-11" data-name="fullLogo" d="M187.1534,84.437v17.6821q0,5.4244-2.8613,8.1788t-8.2,2.7548q-5.297,0-8.1787-2.7548t-2.8828-8.1788V84.437h3.417v16.8276q0,4.4,1.8574,6.4917,1.8575,2.0934,5.7871,2.0928t5.7871-2.0928q1.8575-2.0917,1.8584-6.4917V84.437Z" style="fill: #fff"/>
      <path id="fullLogo-12" data-name="fullLogo" d="M209.8458,109.4224H225.99v3.2031H206.4288V84.437h3.417Z" style="fill: #fff"/>
      <path id="fullLogo-13" data-name="fullLogo" d="M256.8819,84.437V87.64h-9.8232v24.9854h-3.417V87.64h-9.8223V84.437Z" style="fill: #fff"/>
      <path id="fullLogo-14" data-name="fullLogo" d="M266.12,112.6255,277.0968,84.437h4.0576l10.9336,28.1885h-3.6309l-8.0293-21.0132-1.3242-3.9292h-.085L277.78,91.4844l-8.0723,21.1411Zm5.3818-7.8159v-3.2032h15.0762V104.81Z" style="fill: #fff"/>
      <path id="fullLogo-15" data-name="fullLogo" d="M330.5392,84.437v28.1885h-4.2286L314.5226,93.748l-2.9893-5.2963h-.043l.1709,4.271v19.9028h-3.2461V84.437h4.2285L324.3888,103.23l3.0322,5.4238h.043l-.1709-4.3135V84.437Z" style="fill: #fff"/>
      <path id="fullLogo-16" data-name="fullLogo" d="M373.09,105.4077a11.8594,11.8594,0,0,1-2.5625,4.1211,11.0714,11.0714,0,0,1-3.9082,2.627,14.1832,14.1832,0,0,1-11.83-.8755,11.8275,11.8275,0,0,1-4.5274-5.0186,19.4571,19.4571,0,0,1,0-15.4609,11.8362,11.8362,0,0,1,4.5274-5.0186,12.9709,12.9709,0,0,1,6.8544-1.7719,14.719,14.719,0,0,1,4.8692.747,9.8108,9.8108,0,0,1,3.6514,2.2212,10.775,10.775,0,0,1,2.413,3.6089l-3.374,1.58a7.8375,7.8375,0,0,0-2.7119-3.6944,7.75,7.75,0,0,0-4.5908-1.26,9.3924,9.3924,0,0,0-5.04,1.3452,9.025,9.025,0,0,0-3.3955,3.8652,13.9463,13.9463,0,0,0-1.2168,6.1075,14.6277,14.6277,0,0,0,1.1534,6.0859,8.6911,8.6911,0,0,0,3.288,3.8867,9.2559,9.2559,0,0,0,5.04,1.3452,8.4844,8.4844,0,0,0,4.9111-1.4306,8.0168,8.0168,0,0,0,3.0322-4.292Z" style="fill: #fff"/>
      <path id="fullLogo-17" data-name="fullLogo" d="M409.4063,84.437l-10.0791,17.1694v11.0191H395.91V101.6064L385.83,84.437h4.0576l5.4668,9.6524,2.2637,4.0146,2.2636-4.0146,5.4668-9.6524Z" style="fill: #fff"/>
    </g>
  </g>
</svg>
