<svg xmlns="http://www.w3.org/2000/svg" viewBox="0 0 410.0741 113.0527">
  <title>urbanepisodeduo-logo-full-color-rgb</title>
  <g id="full-rgb">
    <g>
      <path id="fullLogo" d="M271.0338,67.7641h.21l.0945-.3Z"/>
      <path id="fullLogo-2" data-name="fullLogo" d="M301.2831.0129H278.2956L252.4069,73.6641h19.0919l.3041-.3,3.1888-3.1477h28.7447l3.4107,3.4066.0986-.1644.0617.2055h19.7493ZM277.8148,54.0092,286.44,26.2385l3.0121-11.4937h.2219L292.9124,26.35l8.4159,27.66Z"/>
      <path id="fullLogo-3" data-name="fullLogo" d="M65.8394.0129V43.6456q0,15.6195-8.3131,23.3779-8.3152,7.7542-24.6066,7.75-16.18,0-24.549-7.75Q0,59.2691,0,43.6456V.0129H19.3055l.0083.0041L46.6407,27.3439,46.6489.0129Z"/>
      <path id="fullLogo-4" data-name="fullLogo" d="M140.6668,53.4242l-4.6-7.14c6.19-1.81,9.93-7.06,11.77-12.11a29.884,29.884,0,0,0,1.1-13.93,26.608,26.608,0,0,0-1.61-6.58,18.5681,18.5681,0,0,0-5.21-7.45q-7.3353-6.225-20.5-6.21h-35.11v73.68h18.85v-19.96l-.05-7.44h11.26l.29.5,1.51,2.37,4.03,6.94-.65-.98,10.84,18.57h21.19Zm-10.07-23.5a6.8885,6.8885,0,0,1-1.82,3.36,6.8168,6.8168,0,0,1-.72.55h-.04l-12.39-19.33h3.32a14.4591,14.4591,0,0,1,8.12,2.12C131.2867,19.4642,131.9168,25.3842,130.5968,29.9242Z"/>
      <path id="fullLogo-5" data-name="fullLogo" d="M237.0668,53.79c0,6.33-2.22,11.22-6.7,14.66-4.43,3.5-11.13,5.22-20.08,5.22h-37.49V0h35.81c9.07.08,15.77,1.8,20.12,5.21,4.32,3.37,6.45,8.26,6.45,14.66a16.3549,16.3549,0,0,1-3.7,10.76c-2.42,3.04-6.2,4.93-11.25,5.75v.12c5.67.74,9.9,2.72,12.65,5.88A16.61,16.61,0,0,1,237.0668,53.79Z"/>
      <polygon id="fullLogo-6" data-name="fullLogo" points="408.975 0.013 408.975 73.664 342.581 73.664 342.581 0.013 365.006 0.009 392.341 27.344 392.341 0.013 408.975 0.013"/>
      <path id="fullLogo-7" data-name="fullLogo" d="M2.9676,112.6255V84.437H22.743V87.64H6.3846v9.0972H19.1122v3.2036H6.3846v9.4815H23.3837v3.2031Z" style="fill: #edad03"/>
      <path id="fullLogo-8" data-name="fullLogo" d="M78.6063,84.437a11.1019,11.1019,0,0,1,4.9756,1.0464,7.9791,7.9791,0,0,1,3.31,2.9683,9.3273,9.3273,0,0,1,0,9.14,7.9737,7.9737,0,0,1-3.31,2.9683,11.0965,11.0965,0,0,1-4.9756,1.0463H72.0712v11.0191h-3.417V84.437Zm-.5127,13.9663q3.3311,0,4.8682-1.3882a5.981,5.981,0,0,0,0-8.0083q-1.5366-1.3659-4.8682-1.3667H72.0712V98.4033Z" style="fill: #edad03"/>
      <path id="fullLogo-9" data-name="fullLogo" d="M136.5624,84.437v28.1885h-3.417V84.437Z" style="fill: #edad03"/>
      <path id="fullLogo-10" data-name="fullLogo" d="M193.28,84.01a12.8448,12.8448,0,0,1,6.4063,1.5161,12.3454,12.3454,0,0,1,4.4844,4.4629L201.3094,92.21a10.0956,10.0956,0,0,0-3.5664-3.8652,9.5559,9.5559,0,0,0-4.8047-1.1318,9.4185,9.4185,0,0,0-3.7373.6406,4.73,4.73,0,0,0-2.1562,1.687,4.2366,4.2366,0,0,0-.6836,2.37,3.992,3.992,0,0,0,.9394,2.627,6.876,6.876,0,0,0,3.7588,1.7724l6.1075,1.3667q4.0575.8966,5.6591,2.712a6.5656,6.5656,0,0,1,1.6016,4.5058,7.0555,7.0555,0,0,1-1.3457,4.2495,8.6881,8.6881,0,0,1-3.7793,2.8828,14.6737,14.6737,0,0,1-5.7236,1.0254,16.0139,16.0139,0,0,1-5.4024-.833,12.76,12.76,0,0,1-3.9931-2.2422,12.9666,12.9666,0,0,1-2.7334-3.1606l2.9892-2.4346a10.4288,10.4288,0,0,0,2.0928,2.8618,8.8876,8.8876,0,0,0,3.0967,1.9219,11.7665,11.7665,0,0,0,4.164.6831,11.9633,11.9633,0,0,0,3.7793-.5337,5.1831,5.1831,0,0,0,2.4561-1.58,3.89,3.89,0,0,0,.8545-2.5416,3.7591,3.7591,0,0,0-.8975-2.4555,6.0143,6.0143,0,0,0-3.374-1.6445l-6.6191-1.4947a13.0053,13.0053,0,0,1-4.2071-1.6445,6.33,6.33,0,0,1-2.3066-2.4771,6.9123,6.9123,0,0,1-.7051-3.0962,7.3785,7.3785,0,0,1,1.2607-4.1645,8.89,8.89,0,0,1,3.63-3.0537A12.7163,12.7163,0,0,1,193.28,84.01Z" style="fill: #edad03"/>
      <path id="fullLogo-11" data-name="fullLogo" d="M261.4022,84.01a13.1462,13.1462,0,0,1,6.94,1.7719,11.8547,11.8547,0,0,1,4.5274,5.0186,19.4582,19.4582,0,0,1,0,15.4609,11.846,11.846,0,0,1-4.5274,5.0186,14.4749,14.4749,0,0,1-13.8808,0,11.8275,11.8275,0,0,1-4.5274-5.0186,19.4582,19.4582,0,0,1,0-15.4609,11.8362,11.8362,0,0,1,4.5274-5.0186A13.1415,13.1415,0,0,1,261.4022,84.01Zm0,3.2031a9.2553,9.2553,0,0,0-5.04,1.3452,8.696,8.696,0,0,0-3.2881,3.8867,16.6344,16.6344,0,0,0,0,12.1719,8.6907,8.6907,0,0,0,3.2881,3.8867,10.1528,10.1528,0,0,0,10.1006,0,8.7372,8.7372,0,0,0,3.2675-3.8867,16.633,16.633,0,0,0,0-12.1719,8.7426,8.7426,0,0,0-3.2675-3.8867A9.2249,9.2249,0,0,0,261.4022,87.2134Z" style="fill: #edad03"/>
      <path id="fullLogo-12" data-name="fullLogo" d="M329.5233,84.437q6.62,0,10.3994,3.6519t3.78,10.4424q0,6.7909-3.78,10.4423t-10.3994,3.6519h-9.0977V84.437Zm.3418,24.9854a9.8492,9.8492,0,0,0,7.5381-2.8828q2.7114-2.8836,2.7119-8.0083t-2.7119-8.0079a9.8477,9.8477,0,0,0-7.5381-2.8833h-6.0225v21.7823Z" style="fill: #edad03"/>
      <path id="fullLogo-13" data-name="fullLogo" d="M389.6581,112.6255V84.437h19.7754V87.64H393.0751v9.0972h12.7275v3.2036H393.0751v9.4815h16.999v3.2031Z" style="fill: #edad03"/>
    </g>
  </g>
</svg>
