<svg xmlns="http://www.w3.org/2000/svg" viewBox="0 0 408.9753 112.954">
  <title>urbanresearchduo-logo-full-color-rgb</title>
  <g id="full-rgb">
    <g>
      <path id="fullLogo" d="M271.0338,67.7641h.21l.0945-.3Z"/>
      <path id="fullLogo-2" data-name="fullLogo" d="M301.2831.0129H278.2956L252.4069,73.6641h19.0919l.3041-.3,3.1888-3.1477h28.7447l3.4107,3.4066.0986-.1644.0617.2055h19.7493ZM277.8148,54.0092,286.44,26.2385l3.0121-11.4937h.2219L292.9124,26.35l8.4159,27.66Z"/>
      <path id="fullLogo-3" data-name="fullLogo" d="M65.8394.0129V43.6456q0,15.6195-8.3131,23.3779-8.3152,7.7542-24.6066,7.75-16.18,0-24.549-7.75Q0,59.2691,0,43.6456V.0129H19.3055l.0083.0041L46.6407,27.3439,46.6489.0129Z"/>
      <path id="fullLogo-4" data-name="fullLogo" d="M140.6668,53.428l-4.6-7.15c6.19-1.8,9.93-7.05,11.77-12.1a29.8836,29.8836,0,0,0,1.1-13.93,26.6859,26.6859,0,0,0-1.61-6.59,18.6366,18.6366,0,0,0-5.21-7.45q-7.3353-6.21-20.5-6.2h-35.11v73.68h18.85V53.728l-.05-7.45h11.25l.3.51,1.51,2.37,4.03,6.94-.65-.98,10.84,18.57h21.19Zm-10.07-23.5a6.8143,6.8143,0,0,1-1.82,3.35,6.9069,6.9069,0,0,1-.72.56h-.04l-12.39-19.34h3.32a14.54,14.54,0,0,1,8.12,2.12C131.2867,19.468,131.9168,25.3881,130.5968,29.928Z"/>
      <path id="fullLogo-5" data-name="fullLogo" d="M237.0668,53.79c0,6.33-2.22,11.22-6.7,14.66-4.43,3.5-11.13,5.22-20.08,5.22h-37.49V0h35.81c9.07.08,15.77,1.8,20.12,5.21,4.32,3.37,6.45,8.26,6.45,14.66a16.3549,16.3549,0,0,1-3.7,10.76c-2.42,3.04-6.2,4.93-11.25,5.75v.12c5.67.74,9.9,2.72,12.65,5.88A16.61,16.61,0,0,1,237.0668,53.79Z"/>
      <polygon id="fullLogo-6" data-name="fullLogo" points="408.975 0.013 408.975 73.664 342.581 73.664 342.581 0.013 365.006 0.009 392.341 27.344 392.341 0.013 408.975 0.013"/>
      <path id="fullLogo-7" data-name="fullLogo" d="M13.6456,84.3383A10.3037,10.3037,0,0,1,20.5645,86.56,7.503,7.503,0,0,1,23.17,92.5814a7.1655,7.1655,0,0,1-2.6269,5.9151,10.7356,10.7356,0,0,1-6.94,2.1142l-.2988.2134H6.3848v11.7026H2.9679V84.3383Zm-.043,13.2827a6.8072,6.8072,0,0,0,4.5059-1.26,5.5844,5.5844,0,0,0,0-7.56,6.81,6.81,0,0,0-4.5059-1.26H6.3848v10.08Zm1.9649.6836,9.3105,14.2221H20.82l-8.1143-12.3432Z" style="fill: #3f759b"/>
      <path id="fullLogo-8" data-name="fullLogo" d="M58.41,112.5267V84.3383H78.1856v3.2031H61.8272v9.0972H74.5548v3.2036H61.8272v9.4814H78.8263v3.2031Z" style="fill: #3f759b"/>
      <path id="fullLogo-9" data-name="fullLogo" d="M121.754,83.9115a12.8454,12.8454,0,0,1,6.4062,1.5161,12.3454,12.3454,0,0,1,4.4844,4.4629l-2.8613,2.2212a10.0948,10.0948,0,0,0-3.5664-3.8652,9.5562,9.5562,0,0,0-4.8047-1.1319,9.4159,9.4159,0,0,0-3.7373.6407,4.7288,4.7288,0,0,0-2.1563,1.687,4.2371,4.2371,0,0,0-.6836,2.37,3.9913,3.9913,0,0,0,.94,2.6269,6.876,6.876,0,0,0,3.7588,1.7725l6.1074,1.3667q4.0577.8965,5.6592,2.7119a6.5658,6.5658,0,0,1,1.6015,4.5059,7.0557,7.0557,0,0,1-1.3457,4.2495,8.6869,8.6869,0,0,1-3.7793,2.8828,14.6734,14.6734,0,0,1-5.7236,1.0254,16.0129,16.0129,0,0,1-5.4023-.833,12.7644,12.7644,0,0,1-3.9932-2.2422,12.971,12.971,0,0,1-2.7334-3.1607l2.9893-2.4345a10.43,10.43,0,0,0,2.0927,2.8618,8.8885,8.8885,0,0,0,3.0967,1.9219,11.77,11.77,0,0,0,4.1641.6831,11.9666,11.9666,0,0,0,3.7793-.5337,5.1829,5.1829,0,0,0,2.456-1.58,3.8886,3.8886,0,0,0,.8545-2.5415,3.7592,3.7592,0,0,0-.8974-2.4556,6.0157,6.0157,0,0,0-3.3741-1.6445L118.4659,99.5a13.0056,13.0056,0,0,1-4.207-1.6446,6.3289,6.3289,0,0,1-2.3067-2.477,6.9122,6.9122,0,0,1-.705-3.0962,7.378,7.378,0,0,1,1.2607-4.1645,8.8907,8.8907,0,0,1,3.63-3.0538A12.7174,12.7174,0,0,1,121.754,83.9115Z" style="fill: #3f759b"/>
      <path id="fullLogo-10" data-name="fullLogo" d="M167.1173,112.5267V84.3383h19.7754v3.2031H170.5343v9.0972h12.7275v3.2036H170.5343v9.4814h16.999v3.2031Z" style="fill: #3f759b"/>
      <path id="fullLogo-11" data-name="fullLogo" d="M217.9044,112.5267l10.9765-28.1884h4.0577l10.9336,28.1884h-3.6309L232.212,91.5136l-1.3242-3.9292h-.085l-1.2383,3.8012-8.0722,21.1411Zm5.3818-7.8159v-3.2031h15.0762v3.2031Z" style="fill: #3f759b"/>
      <path id="fullLogo-12" data-name="fullLogo" d="M287.3126,84.3383a10.3037,10.3037,0,0,1,6.9189,2.2212,7.503,7.503,0,0,1,2.6055,6.0219,7.1653,7.1653,0,0,1-2.627,5.9151,10.7351,10.7351,0,0,1-6.94,2.1142l-.2988.2134h-6.919v11.7026h-3.417V84.3383ZM287.27,97.621a6.8072,6.8072,0,0,0,4.5059-1.26,5.5844,5.5844,0,0,0,0-7.56,6.81,6.81,0,0,0-4.5059-1.26h-7.2178v10.08Zm1.9649.6836,9.31,14.2221h-4.0576l-8.1143-12.3432Z" style="fill: #3f759b"/>
      <path id="fullLogo-13" data-name="fullLogo" d="M354.5431,105.309a11.8633,11.8633,0,0,1-2.5625,4.1211,11.07,11.07,0,0,1-3.9083,2.6269,14.1822,14.1822,0,0,1-11.83-.8755,11.8272,11.8272,0,0,1-4.5274-5.0185,19.4585,19.4585,0,0,1,0-15.461,11.8359,11.8359,0,0,1,4.5274-5.0185,12.97,12.97,0,0,1,6.8545-1.772,14.7161,14.7161,0,0,1,4.8691.7471,9.8082,9.8082,0,0,1,3.6514,2.2212,10.7757,10.7757,0,0,1,2.4131,3.6089l-3.3741,1.58a7.8358,7.8358,0,0,0-2.7119-3.6943,7.75,7.75,0,0,0-4.5908-1.26,9.3927,9.3927,0,0,0-5.04,1.3452,9.024,9.024,0,0,0-3.3955,3.8653,13.9447,13.9447,0,0,0-1.2168,6.1074,14.6271,14.6271,0,0,0,1.1533,6.0859,8.69,8.69,0,0,0,3.2881,3.8868,9.2562,9.2562,0,0,0,5.04,1.3452,8.4837,8.4837,0,0,0,4.9111-1.4307,8.0166,8.0166,0,0,0,3.0323-4.292Z" style="fill: #3f759b"/>
      <path id="fullLogo-14" data-name="fullLogo" d="M390.2682,84.3383v28.1884h-3.417V84.3383Zm16.87,12.3v3.2036H388.6452V96.6386Zm1.837-12.3v28.1884h-3.417V84.3383Z" style="fill: #3f759b"/>
    </g>
  </g>
</svg>
