<svg xmlns="http://www.w3.org/2000/svg" viewBox="0 0 409.0132 112.8115">
  <title>urbanexplorers-logo-full-color-rgb</title>
  <g id="full-rgb">
    <g>
      <path id="fullLogo" d="M271.0338,67.7641h.21l.0945-.3Z" style="fill: #61642d"/>
      <path id="fullLogo-2" data-name="fullLogo" d="M301.2831.0129H278.2956L252.4069,73.6641h19.0919l.3041-.3,3.1888-3.1477h28.7447l3.4107,3.4066.0986-.1644.0617.2055h19.7493ZM277.8148,54.0092,286.44,26.2385l3.0121-11.4937h.2219L292.9124,26.35l8.4159,27.66Z" style="fill: #61642d"/>
      <path id="fullLogo-3" data-name="fullLogo" d="M65.8394.0129V43.6456q0,15.6195-8.3131,23.3779-8.3152,7.7542-24.6066,7.75-16.18,0-24.549-7.75Q0,59.2691,0,43.6456V.0129H19.3055l.0083.0041L46.6407,27.3439,46.6489.0129Z" style="fill: #61642d"/>
      <path id="fullLogo-4" data-name="fullLogo" d="M140.6706,53.428l-4.6-7.15c6.18-1.8,9.93-7.05,11.76-12.1a29.7458,29.7458,0,0,0,1.11-13.93,27.6064,27.6064,0,0,0-1.61-6.59,18.7562,18.7562,0,0,0-5.22-7.45q-7.32-6.21-20.49-6.2H86.5v73.68h18.85v-19.96l-.04-7.45h11.24l.3.51,1.52,2.37,4.02,6.94-.65-.98,10.84,18.57h21.19Zm-10.07-23.5a6.8115,6.8115,0,0,1-1.82,3.35,6.8757,6.8757,0,0,1-.72.56h-.04l-12.4-19.34h3.33a14.5412,14.5412,0,0,1,8.12,2.12C131.29,19.4681,131.9206,25.3881,130.6,29.928Z" style="fill: #61642d"/>
      <path id="fullLogo-5" data-name="fullLogo" d="M237.0668,53.79c0,6.33-2.22,11.22-6.7,14.66-4.43,3.5-11.13,5.22-20.08,5.22h-37.49V0h35.81c9.07.08,15.77,1.8,20.12,5.21,4.32,3.37,6.45,8.26,6.45,14.66a16.3549,16.3549,0,0,1-3.7,10.76c-2.42,3.04-6.2,4.93-11.25,5.75v.12c5.67.74,9.9,2.72,12.65,5.88A16.61,16.61,0,0,1,237.0668,53.79Z" style="fill: #61642d"/>
      <polygon id="fullLogo-6" data-name="fullLogo" points="408.975 0.013 408.975 73.664 342.581 73.664 342.581 0.013 365.006 0.009 392.341 27.344 392.341 0.013 408.975 0.013" style="fill: #61642d"/>
      <path id="fullLogo-7" data-name="fullLogo" d="M2.0122,112.3843V84.1958H21.7876v3.2031H5.4292v9.0972H18.1568V99.7H5.4292v9.4815h16.999v3.2031Z" style="fill: #61642d"/>
      <path id="fullLogo-8" data-name="fullLogo" d="M69.8589,112.3843h-3.93l-7.6445-11.6172-7.6875,11.6172H46.6245l9.8662-14.3506L47.479,84.1958h4.0147l7.1328,10.9766,7.2178-10.9766H69.56l-9.14,13.667Z" style="fill: #61642d"/>
      <path id="fullLogo-9" data-name="fullLogo" d="M106.7,84.1958a11.1013,11.1013,0,0,1,4.9756,1.0464,7.98,7.98,0,0,1,3.31,2.9682,9.3275,9.3275,0,0,1,0,9.14,7.9728,7.9728,0,0,1-3.31,2.9682,11.0946,11.0946,0,0,1-4.9756,1.0464h-6.5351v11.0191h-3.417V84.1958Zm-.5127,13.9663q3.3311,0,4.8682-1.3882a5.981,5.981,0,0,0,0-8.0083q-1.5366-1.3659-4.8682-1.3667h-6.0224V98.1621Z" style="fill: #61642d"/>
      <path id="fullLogo-10" data-name="fullLogo" d="M147.1265,109.1812H163.271v3.2031H143.71V84.1958h3.417Z" style="fill: #61642d"/>
      <path id="fullLogo-11" data-name="fullLogo" d="M200.5376,83.769a13.1468,13.1468,0,0,1,6.9405,1.772,11.8546,11.8546,0,0,1,4.5273,5.0186,19.4571,19.4571,0,0,1,0,15.4609,11.8464,11.8464,0,0,1-4.5273,5.0186,14.4751,14.4751,0,0,1-13.8809,0,11.8275,11.8275,0,0,1-4.5274-5.0186,19.4582,19.4582,0,0,1,0-15.4609,11.8356,11.8356,0,0,1,4.5274-5.0186A13.1418,13.1418,0,0,1,200.5376,83.769Zm0,3.2032a9.2553,9.2553,0,0,0-5.04,1.3452,8.6972,8.6972,0,0,0-3.2881,3.8867,16.6344,16.6344,0,0,0,0,12.1719,8.6919,8.6919,0,0,0,3.2881,3.8867,10.1528,10.1528,0,0,0,10.1006,0,8.7372,8.7372,0,0,0,3.2675-3.8867,16.633,16.633,0,0,0,0-12.1719,8.7426,8.7426,0,0,0-3.2675-3.8867A9.2249,9.2249,0,0,0,200.5376,86.9722Z" style="fill: #61642d"/>
      <path id="fullLogo-12" data-name="fullLogo" d="M252.71,84.1958a10.3037,10.3037,0,0,1,6.9189,2.2212,7.5034,7.5034,0,0,1,2.6055,6.022,7.1654,7.1654,0,0,1-2.6269,5.915,10.735,10.735,0,0,1-6.9405,2.1143l-.2988.2133h-6.9189v11.7027h-3.417V84.1958Zm-.043,13.2827a6.8072,6.8072,0,0,0,4.5059-1.26,5.5844,5.5844,0,0,0,0-7.56,6.8094,6.8094,0,0,0-4.5059-1.26h-7.2177v10.08Zm1.9649.6836,9.31,14.2222h-4.0576L251.77,100.041Z" style="fill: #61642d"/>
      <path id="fullLogo-13" data-name="fullLogo" d="M291.3433,112.3843V84.1958h19.7754v3.2031H294.76v9.0972h12.7275V99.7H294.76v9.4815h16.999v3.2031Z" style="fill: #61642d"/>
      <path id="fullLogo-14" data-name="fullLogo" d="M350.1782,84.1958a10.304,10.304,0,0,1,6.919,2.2212,7.5037,7.5037,0,0,1,2.6055,6.022,7.1652,7.1652,0,0,1-2.627,5.915,10.7347,10.7347,0,0,1-6.94,2.1143l-.2988.2133h-6.919v11.7027h-3.417V84.1958Zm-.0429,13.2827a6.8069,6.8069,0,0,0,4.5058-1.26,5.5841,5.5841,0,0,0,0-7.56,6.8091,6.8091,0,0,0-4.5058-1.26h-7.2178v10.08Zm1.9648.6836,9.3106,14.2222h-4.0576l-8.1143-12.3433Z" style="fill: #61642d"/>
      <path id="fullLogo-15" data-name="fullLogo" d="M397.8657,83.769a12.8445,12.8445,0,0,1,6.4063,1.5162,12.3451,12.3451,0,0,1,4.4844,4.4628l-2.8614,2.2212a10.0948,10.0948,0,0,0-3.5664-3.8652,9.5558,9.5558,0,0,0-4.8046-1.1318,9.4169,9.4169,0,0,0-3.7374.6406A4.73,4.73,0,0,0,391.63,89.3a4.2366,4.2366,0,0,0-.6836,2.37,3.9916,3.9916,0,0,0,.94,2.627,6.8752,6.8752,0,0,0,3.7587,1.7724l6.1075,1.3667q4.0575.8965,5.6591,2.7119a6.5661,6.5661,0,0,1,1.6016,4.5059,7.0557,7.0557,0,0,1-1.3457,4.2495,8.6875,8.6875,0,0,1-3.7793,2.8828,14.6734,14.6734,0,0,1-5.7236,1.0254,16.0139,16.0139,0,0,1-5.4024-.833,12.7619,12.7619,0,0,1-3.9931-2.2422,12.9666,12.9666,0,0,1-2.7334-3.1606l2.9892-2.4346a10.43,10.43,0,0,0,2.0928,2.8618,8.8876,8.8876,0,0,0,3.0967,1.9219,11.7665,11.7665,0,0,0,4.164.6831,11.9628,11.9628,0,0,0,3.7793-.5337,5.182,5.182,0,0,0,2.4561-1.58,3.889,3.889,0,0,0,.8545-2.5415,3.7583,3.7583,0,0,0-.8975-2.4555,6.0143,6.0143,0,0,0-3.374-1.6446l-6.6191-1.4946a13.0063,13.0063,0,0,1-4.2071-1.6445,6.33,6.33,0,0,1-2.3066-2.4771,6.9123,6.9123,0,0,1-.7051-3.0962,7.3778,7.3778,0,0,1,1.2608-4.1645,8.89,8.89,0,0,1,3.63-3.0537A12.7163,12.7163,0,0,1,397.8657,83.769Z" style="fill: #61642d"/>
    </g>
  </g>
</svg>
