<svg xmlns="http://www.w3.org/2000/svg" viewBox="0 0 864 274.8828">
  <title>studiourban-logo-one-color-rgb</title>
  <g id="black-rgb">
    <g>
      <path id="fullLogo" d="M574.65,260.1794h.44l.1982-.6292Z"/>
      <path id="fullLogo-2" data-name="fullLogo" d="M34.1505,24.7961a25.3522,25.3522,0,0,1,8.13-1.0837,36.5587,36.5587,0,0,1,15.2433,3.0439,40.8133,40.8133,0,0,1,12.5387,9.1475L81.3112,20.8671a46.6506,46.6506,0,0,0-16.6-11.3145A58.3571,58.3571,0,0,0,42.6862,5.69q-12.0591,0-20.7353,3.7879A30.752,30.752,0,0,0,8.6762,19.85,25.4084,25.4084,0,0,0,4.0693,34.82q0,7.4559,3.3828,12.3979A23.6772,23.6772,0,0,0,16.74,55.0842a61.9005,61.9005,0,0,0,13.4816,4.6726l16.5335,3.656q5.6822,1.3648,7.725,3.3249a6.4411,6.4411,0,0,1,2.0264,4.8054,7.0307,7.0307,0,0,1-1.4887,4.4744,8.9871,8.9871,0,0,1-4.6731,2.8453,28.0377,28.0377,0,0,1-7.9318.9513A41.6728,41.6728,0,0,1,30.42,78.0522a45.0178,45.0178,0,0,1-10.8349-4.8138,35.3836,35.3836,0,0,1-8.3371-6.98L0,81.8488a45.9735,45.9735,0,0,0,10.9755,8.3948A56.9,56.9,0,0,0,25.615,95.8679a72.5722,72.5722,0,0,0,17.0712,1.9685,53.4511,53.4511,0,0,0,19.511-3.3249A29.4843,29.4843,0,0,0,75.6126,84.62q4.8881-6.5632,4.88-16.0538,0-9.8883-6.228-15.8556-6.24-5.9673-19.6516-9.0812L39.568,40.2462q-5.955-1.3526-8.6017-3.3253A5.8244,5.8244,0,0,1,28.32,32.1158a7.3,7.3,0,0,1,1.3564-4.3424A8.8472,8.8472,0,0,1,34.1505,24.7961Z"/>
      <path id="fullLogo-3" data-name="fullLogo" d="M135.85,80.6906a18.8669,18.8669,0,0,1-5.6242.7444,9.543,9.543,0,0,1-6.5754-2.1009q-2.37-2.0961-2.3655-6.9721V45.1174h20.1893V28.7247H121.2845V7.179L98.2418,13.5474V28.7247H86.588V45.1174H98.2418V76.15q.1365,7.8656,3.1843,12.6048a17.4531,17.4531,0,0,0,8.6761,6.9146,37.2,37.2,0,0,0,13.3493,2.1671,41.4485,41.4485,0,0,0,10.57-1.3565,25.5875,25.5875,0,0,0,8.5356-3.7962l-2.44-14.226A13.3232,13.3232,0,0,1,135.85,80.6906Z"/>
      <path id="fullLogo-4" data-name="fullLogo" d="M196.4091,65.0423a23.6694,23.6694,0,0,1-.885,6.84,12.509,12.509,0,0,1-2.506,4.748,10.0952,10.0952,0,0,1-3.7881,2.7041,11.993,11.993,0,0,1-4.6069.8852q-4.7517,0-7.32-2.5722-2.58-2.5809-2.5722-9.0813V28.7247H151.6883V73.9829q0,8.5359,2.9859,13.8209a17.6267,17.6267,0,0,0,8.1964,7.6586,29.0419,29.0419,0,0,0,12.1252,2.374,27.1362,27.1362,0,0,0,14.0936-3.4573,22.8045,22.8045,0,0,0,9.0814-10.6363l.6783,12.7371h20.5945V28.7247H196.4091Z"/>
      <path id="fullLogo-5" data-name="fullLogo" d="M280.1686,40.3745a24.98,24.98,0,0,0-5.0783-7.3822q-5.6327-5.62-14.8381-5.624a26.5478,26.5478,0,0,0-14.838,4.2013A27.7224,27.7224,0,0,0,235.3816,43.629q-3.5854,7.8656-3.59,19.2462,0,10.98,3.4573,18.8329a26.7341,26.7341,0,0,0,9.7514,11.9928,26.2207,26.2207,0,0,0,14.7057,4.1355,23.773,23.773,0,0,0,11.5875-2.7791,23.5089,23.5089,0,0,0,8.4032-7.791,24.2415,24.2415,0,0,0,2.0666-3.8583l.8448,13.0719H303.203V0H280.1686Zm-1.4888,32.12a13.1525,13.1525,0,0,1-4.2678,6.3022,10.83,10.83,0,0,1-6.7077,2.1009,11.1486,11.1486,0,0,1-9.3544-4.4082q-3.3869-4.3922-3.3828-13.8872,0-9.4781,3.449-13.8867a11.3355,11.3355,0,0,1,9.4205-4.4082,10.8121,10.8121,0,0,1,6.7077,2.1,12.79,12.79,0,0,1,4.2017,6.0956,29.0225,29.0225,0,0,1,1.4226,9.6937A31.0393,31.0393,0,0,1,278.68,72.4944Z"/>
      <rect id="fullLogo-6" data-name="fullLogo" x="318.5621" y="28.7247" width="23.0427" height="67.7552"/>
      <path id="fullLogo-7" data-name="fullLogo" d="M420.0543,43.5628A30.0218,30.0218,0,0,0,407.45,31.5038a44.1987,44.1987,0,0,0-37.3349,0,29.9468,29.9468,0,0,0-12.671,12.059q-4.5407,7.9275-4.5407,19.0393,0,11.1162,4.5407,19.04a29.9515,29.9515,0,0,0,12.671,12.059,44.1987,44.1987,0,0,0,37.3349,0,30.0266,30.0266,0,0,0,12.6048-12.059q4.5408-7.9276,4.5408-19.04Q424.5951,51.4985,420.0543,43.5628Zm-20.123,29.8163a12.1079,12.1079,0,0,1-4.3423,6.0957,11.8752,11.8752,0,0,1-6.9062,1.96,11.6316,11.6316,0,0,1-6.7739-1.96,12.0593,12.0593,0,0,1-4.3422-6.0957,32.4659,32.4659,0,0,1-1.4887-10.777,33.0655,33.0655,0,0,1,1.4887-10.8432,11.7123,11.7123,0,0,1,4.3422-6.0953,11.9033,11.9033,0,0,1,6.7739-1.8943,12.1557,12.1557,0,0,1,6.9062,1.8943,11.7579,11.7579,0,0,1,4.3423,6.0953A33.0655,33.0655,0,0,1,401.42,62.6021,32.4659,32.4659,0,0,1,399.9313,73.3791Z"/>
      <polygon id="fullLogo-8" data-name="fullLogo" points="341.592 0 318.562 0 341.592 23.03 341.592 0"/>
      <path id="fullLogo-9" data-name="fullLogo" d="M638.1019,118.0626H589.8827L535.5779,272.5554h40.0476l.6379-.6292,6.689-6.6028h60.2955l7.1545,7.1459.2068-.3449.1294.431h41.4268ZM588.8742,231.3269l18.0929-58.2527,6.3184-24.11h.4654l6.7924,24.3423,17.6534,58.02Z"/>
      <path id="fullLogo-10" data-name="fullLogo" d="M144.2285,118.0626v91.5251q0,32.7639-17.4378,49.0381-17.4422,16.2655-51.6154,16.257-33.94,0-51.4948-16.257Q6.122,242.36,6.122,209.5877V118.0626H46.6178l.0173.0086,57.3217,57.3218.0173-57.33Z"/>
      <path id="fullLogo-11" data-name="fullLogo" d="M301.1867,230.102s-9.64-14.9818-9.6455-14.99c12.9775-3.7831,20.8311-14.7973,24.68-25.3872,3.41-9.3828,3.5348-19.4286,2.3233-29.2214a56.8942,56.8942,0,0,0-3.386-13.8107A39.0876,39.0876,0,0,0,304.22,131.0613q-15.3735-13.0461-42.987-13.0073H187.5765V272.5985h39.5391V230.7321l-.3448-56.6838.3448.6033,7.4992,12.9211h.0862l9.99,17.3086,6.5424,11.292,3.1818,4.9727,8.4388,14.5589-1.363-2.0507,22.739,38.9443h44.4524Zm-24.9362-42.2583a13.1126,13.1126,0,0,1-1.5094,1.1677h-.0862L248.6565,148.456H255.63c5.901,0,12.0655,1.098,17.0368,4.4482,8.8487,5.9632,10.174,18.3852,7.4039,27.9044C279.3088,183.4266,278.3243,185.9751,276.2505,187.8437Z"/>
      <path id="fullLogo-12" data-name="fullLogo" d="M503.3991,230.8692c0,13.2658-4.6551,23.5235-14.0417,30.7554-9.3008,7.3269-23.3514,10.9385-42.1252,10.9385H368.5849V118.0273H443.698c19.0411.1724,33.0828,3.784,42.2114,10.9385,9.0508,7.06,13.5245,17.3171,13.5245,30.7555a34.3891,34.3891,0,0,1-7.7494,22.5666c-5.0856,6.37-13.0072,10.3351-23.601,12.0591v.2586c11.8868,1.5516,20.7566,5.6892,26.5316,12.3177A34.8629,34.8629,0,0,1,503.3991,230.8692Z"/>
      <polygon id="fullLogo-13" data-name="fullLogo" points="864 118.063 864 272.555 724.73 272.555 724.73 118.063 771.768 118.054 829.107 175.393 829.107 118.063 864 118.063"/>
      <rect id="fullLogo-14" data-name="fullLogo" x="219.323" y="166.5539" width="38.0262" height="48.5583"/>
    </g>
  </g>
</svg>
